<svg width="470" height="504" viewBox="0 0 470 504" fill="none" xmlns="http://www.w3.org/2000/svg">
	<path d="M334.667 494H124C115.2 494 108 486.8 108 478V26C108 17.2 115.2 9.99999 124 9.99999H334.667C343.467 9.99999 350.667 17.2 350.667 26V478C350.667 486.8 343.467 494 334.667 494Z" fill="#363155"/>
	<path d="M325.58 486.63H133.404C119.315 486.63 107.74 474.694 107.74 460.165V431.108H350.714V460.165C351.226 475.201 339.651 486.63 325.582 486.63H325.58ZM351.224 415.545H108.251V82.5105H351.224V415.545ZM133.402 16.6345H325.559C339.648 16.6345 351.222 28.5692 351.222 43.0985V66.9691L108.248 66.9492V42.5718C108.248 28.5705 119.822 16.6345 133.4 16.6345H133.402ZM325.579 0.54247H133.402C110.766 0.54247 92.1564 19.7345 92.1564 43.0785V460.676C92.1564 484.018 110.766 503.209 133.402 503.209H325.559C348.195 503.209 366.804 484.018 366.804 460.676L366.823 42.5692C366.823 19.7532 348.215 0.54247 325.579 0.54247V0.54247Z" fill="white"/>
	<path d="M245.49 458.55C245.49 480.762 213.49 480.762 213.49 458.55C213.49 436.318 245.49 436.318 245.49 458.55Z" fill="white"/>
	<path d="M244.157 458.55C244.157 480.762 212.157 480.762 212.157 458.55C212.157 436.318 244.157 436.318 244.157 458.55Z" fill="white"/>
	<path d="M198.706 36.5422C195.186 36.5422 192.157 39.6248 192.157 43.2088C192.157 46.7928 195.186 49.8755 198.706 49.8755H257.608C261.128 49.8755 264.157 46.7928 264.157 43.2088C264.157 39.6248 261.129 36.5422 257.608 36.5422H198.706Z" fill="white"/>
	<path d="M464.951 143.819H457.373V135.932C457.373 133.304 455.359 131.209 452.834 131.209C450.307 131.209 448.294 133.304 448.294 135.932L448.275 143.819H440.697C438.17 143.819 436.157 145.913 436.157 148.543C436.157 151.171 438.17 153.265 440.697 153.265H448.275V161.152C448.275 163.781 450.287 165.876 452.814 165.876C455.341 165.876 457.353 163.781 457.353 161.152V153.265L464.951 153.287C467.478 153.287 469.49 151.192 469.49 148.563C469.49 145.913 467.99 143.819 464.951 143.819Z" fill="white"/>
	<path d="M62.2396 341.152H54.6729V333.265C54.6729 330.637 52.6636 328.543 50.1409 328.543C47.6182 328.543 45.6089 330.637 45.6089 333.265V341.152H38.0222C35.4996 341.152 33.4902 343.247 33.4902 345.876C33.4902 348.504 35.4996 350.599 38.0222 350.599H45.5889V358.485C45.5889 361.115 47.5996 363.209 50.1209 363.209C52.6436 363.209 54.6529 361.115 54.6529 358.485V350.599H62.2196C64.7422 350.599 66.7516 348.504 66.7516 345.876C67.2836 343.781 64.7622 341.152 62.2396 341.152Z" fill="white"/>
	<path d="M52.8035 92.4094H40.4021V79.3414C40.4021 75.6868 37.4181 72.5428 33.9488 72.5428C30.4808 72.5428 27.4968 75.6868 27.4968 79.3414V92.4094H14.6101C11.1408 92.4094 8.1568 95.5534 8.1568 99.2094C8.1568 102.864 11.1408 106.008 14.6101 106.008H27.0115V119.076C27.0115 122.731 29.9955 125.876 33.4648 125.876C36.9328 125.876 39.9168 122.731 39.9168 119.076V106.008H52.3195C55.7875 106.008 58.7715 102.864 58.7715 99.2094C59.2555 95.5534 56.2915 92.4094 52.8035 92.4094Z" fill="white"/>
	<path d="M17.4904 233.201C17.4904 244.767 0.157043 244.767 0.157043 233.201C0.157043 221.656 17.4904 221.656 17.4904 233.201Z" fill="white"/>
	<path d="M429.49 422.535C429.49 434.1 412.157 434.1 412.157 422.535C412.157 410.989 429.49 410.989 429.49 422.535Z" fill="white"/>
	<path d="M424.157 77.2089C424.157 92.3195 401.49 92.3195 401.49 77.2089C401.49 62.0982 424.157 62.0982 424.157 77.2089Z" fill="white"/>
	<path d="M170.824 221.258C187.97 207.435 206.874 196.001 227.078 187.209C241.321 193.358 254.976 200.829 267.842 209.467L227.078 250.123L203.741 226.746L189.269 241.179L219.842 271.671C221.753 273.602 224.352 274.67 227.078 274.67C229.805 274.67 232.404 273.602 234.314 271.671L282.824 223.393C273.422 257.543 254.008 288.137 227.078 311.209C199.614 287.603 179.996 256.222 170.824 221.258ZM227.677 335.209C229.984 335.234 232.213 334.467 234.033 333.063C270.35 304.687 295.697 264.639 305.798 219.766C306.696 215.986 305.389 212.027 302.416 209.55L299.442 207.405L306.824 200.151L292.266 185.643L283.04 194.941C267.74 184.189 251.336 175.045 234.138 167.663L231.884 166.642C229.244 165.619 226.322 165.619 223.682 166.642L221.426 167.663C196.694 178.211 173.68 192.413 153.152 209.754C150.178 212.231 148.872 216.19 149.769 219.97C159.868 264.845 185.214 304.89 221.534 333.266C223.329 334.569 225.481 335.233 227.685 335.209H227.677Z" fill="#FDBE28"/>
</svg>
